<svg xmlns="http://www.w3.org/2000/svg" xmlns:xlink="http://www.w3.org/1999/xlink" width="22" height="22" viewBox="0 0 22 22"><defs><path id="81qha" d="M7868 1970.5a9.5 9.5 0 1 1-19 0 9.5 9.5 0 0 1 19 0zm-1.73 0a7.77 7.77 0 1 0-15.55 0 7.77 7.77 0 0 0 15.55 0zm-4.26-2.34c.34.34.34.88 0 1.22l-3.66 3.67a.86.86 0 0 1-1.22 0l-1.83-1.84a.87.87 0 0 1 1.22-1.22l1.22 1.22 3.05-3.05a.86.86 0 0 1 1.22 0z"/></defs><g><g transform="translate(-7847 -1959)"><use fill="#433407" xlink:href="#81qha"/></g></g></svg>