<svg xmlns="http://www.w3.org/2000/svg" xmlns:xlink="http://www.w3.org/1999/xlink" width="34" height="35" viewBox="0 0 34 35"><defs><path id="14aoa" d="M4400.83 466a15 15 0 0 1-6.12-1.26 15.62 15.62 0 0 1-4.97-3.45 16.48 16.48 0 0 1-3.35-5.1c-.82-1.93-1.24-4-1.24-6.2s.42-4.27 1.24-6.22a15.83 15.83 0 0 1 8.32-8.52c1.9-.84 3.93-1.26 6.12-1.26 2.16 0 4.18.42 6.08 1.26a15.91 15.91 0 0 1 8.37 8.52 15.93 15.93 0 0 1 1.23 6.22c0 2.2-.41 4.27-1.23 6.2a15.92 15.92 0 0 1-8.37 8.54c-1.9.85-3.92 1.27-6.08 1.27zm1.23-18.71v-1.88c0-.32.12-.55.36-.68.24-.14.52-.2.84-.2.16 0 .32.02.46.05a19.97 19.97 0 0 1 .85.2l.43-2.47-.68-.14a15.39 15.39 0 0 0-2.27-.15c-.64 0-1.15.1-1.54.32-.38.21-.7.5-.96.86s-.41.78-.46 1.26c-.05.47-.07.89-.07 1.25v1.58h-1.6v2.4h1.6v8.33h3.04v-8.32h2.41l.2-2.41z"/></defs><g><g transform="translate(-4384 -432)"><use fill="#9f8c5b" xlink:href="#14aoa"/></g></g></svg>