<svg xmlns="http://www.w3.org/2000/svg" xmlns:xlink="http://www.w3.org/1999/xlink" width="34" height="35" viewBox="0 0 34 35"><defs><path id="xvffa" d="M4447.16 466c-2.19 0-4.23-.42-6.13-1.26a15.63 15.63 0 0 1-4.97-3.45 16.49 16.49 0 0 1-3.35-5.1c-.82-1.93-1.23-4-1.23-6.2s.41-4.27 1.23-6.22a15.83 15.83 0 0 1 8.32-8.52c1.9-.84 3.94-1.26 6.13-1.26 2.15 0 4.18.42 6.07 1.26a15.91 15.91 0 0 1 8.37 8.52 15.93 15.93 0 0 1 1.23 6.22c0 2.2-.4 4.27-1.23 6.2a15.92 15.92 0 0 1-8.37 8.54c-1.9.85-3.92 1.27-6.07 1.27zm.14-13.15c-.77 0-1.42-.28-1.96-.84a2.73 2.73 0 0 1-.67-2.85c.1-.27.22-.53.38-.8a2.79 2.79 0 0 1 2.25-1.17c.45 0 .86.1 1.24.32a2.85 2.85 0 0 1 1.49 2.53c0 .76-.28 1.41-.82 1.97-.54.56-1.18.84-1.9.84zm3.4-6.25l-.05-2.71h2.7v2.7zm4.44-1.48c0-.85-.3-1.58-.9-2.2a2.9 2.9 0 0 0-2.14-.9h-9.6c-.84 0-1.55.3-2.15.9-.59.62-.89 1.35-.89 2.2v9.8c0 .85.3 1.58.9 2.19.59.6 1.3.9 2.14.9h9.6c.84 0 1.55-.3 2.15-.9.6-.6.89-1.34.89-2.2zm-3.52 4.92c0-.3-.04-.58-.1-.86a6.93 6.93 0 0 0-.24-.81h2.36v6.55a1.49 1.49 0 0 1-1.54 1.57h-9.6c-.42 0-.77-.14-1.06-.44-.29-.3-.43-.67-.43-1.13v-6.55h2.31a5.1 5.1 0 0 0-.29 1.67c0 1.22.42 2.25 1.26 3.1a4.1 4.1 0 0 0 3.03 1.29 4.1 4.1 0 0 0 3.04-1.28 4.27 4.27 0 0 0 1.26-3.1z"/></defs><g><g transform="translate(-4430 -432)"><use fill="#9f8c5b" xlink:href="#xvffa"/></g></g></svg>