<svg xmlns="http://www.w3.org/2000/svg" xmlns:xlink="http://www.w3.org/1999/xlink" width="98" height="70" viewBox="0 0 98 70"><defs><path id="zuzia" d="M258 5129.94c0 5.73-1.87 10.5-5.58 14.32-3.73 3.83-8.56 5.73-14.51 5.73-7.3 0-13.29-2.68-17.98-8.04-4.68-5.36-7.03-11.8-7.03-19.29 0-10.87 4.1-20.2 12.28-27.99 8.18-7.79 18.08-11.68 29.7-11.68l.44 3.3c-7.14 0-13.7 2.48-19.65 7.43-5.95 4.96-8.93 10.63-8.93 17.04 0 1.47.19 2.57.56 3.3.37.74.93 1.1 1.68 1.1 1.04 0 2.64-.47 4.8-1.42 2.15-.96 3.98-1.44 5.47-1.44a19.3 19.3 0 0 1 13.05 4.96c3.8 3.3 5.7 7.53 5.7 12.68zm-50.9 0c0 5.73-1.87 10.5-5.58 14.32-3.73 3.83-8.56 5.73-14.52 5.73-7.29 0-13.28-2.68-17.97-8.04-4.69-5.36-7.03-11.8-7.03-19.29 0-10.87 4.1-20.2 12.28-27.99 8.18-7.79 18.08-11.68 29.7-11.68l.44 3.3c-7.15 0-13.7 2.48-19.65 7.43-5.95 4.96-8.93 10.63-8.93 17.04 0 1.47.19 2.57.56 3.3.37.74.93 1.1 1.67 1.1 1.04 0 2.65-.47 4.8-1.42 2.16-.96 3.98-1.44 5.47-1.44a19.3 19.3 0 0 1 13.06 4.96c3.8 3.3 5.7 7.53 5.7 12.68z"/></defs><g><g transform="translate(-161 -5081)"><use fill="#e8e0cb" xlink:href="#zuzia"/></g></g></svg>