<svg xmlns="http://www.w3.org/2000/svg" xmlns:xlink="http://www.w3.org/1999/xlink" width="98" height="17" viewBox="0 0 98 17"><defs><path id="wxc1a" d="M4863.68 589c.41 0 .78.23.96.58l1.65 3.4 3.81.55c.4.06.72.33.84.69.13.36.03.76-.24 1.03l-2.8 2.75.65 3.82a1 1 0 0 1-.43 1 1.09 1.09 0 0 1-1.12.05l-3.32-1.76-3.32 1.76a1.1 1.1 0 0 1-1.12-.06 1 1 0 0 1-.43-1l.64-3.8-2.79-2.76a.98.98 0 0 1-.24-1.03c.12-.36.45-.63.84-.69l3.8-.55 1.66-3.4c.18-.35.55-.58.96-.58zm-20.08 0c.4 0 .78.23.95.58l1.66 3.4 3.8.55c.4.06.72.33.85.69.13.36.03.76-.25 1.03l-2.79 2.75.65 3.82a1 1 0 0 1-.43 1 1.09 1.09 0 0 1-1.12.05l-3.32-1.76-3.32 1.76a1.1 1.1 0 0 1-1.12-.06 1 1 0 0 1-.44-1l.65-3.8-2.8-2.76a.99.99 0 0 1-.24-1.03c.13-.36.45-.63.85-.69l3.8-.55 1.66-3.4c.17-.35.55-.58.96-.58zm-20.09 0c.41 0 .79.23.96.58l1.66 3.4 3.8.55c.4.06.72.33.85.69.12.36.03.76-.25 1.03l-2.79 2.75.65 3.82a1 1 0 0 1-.44 1 1.1 1.1 0 0 1-1.12.05l-3.32-1.76-3.32 1.76a1.1 1.1 0 0 1-1.12-.06 1 1 0 0 1-.43-1l.65-3.8-2.8-2.76a.99.99 0 0 1-.24-1.03c.13-.36.45-.63.84-.69l3.81-.55 1.66-3.4c.17-.35.54-.58.95-.58zm-20.08 0c.41 0 .78.23.96.58l1.65 3.4 3.81.55c.4.06.72.33.84.69.13.36.03.76-.24 1.03l-2.8 2.75.65 3.82a1 1 0 0 1-.43 1 1.09 1.09 0 0 1-1.12.05l-3.32-1.76-3.32 1.76a1.1 1.1 0 0 1-1.12-.06 1 1 0 0 1-.43-1l.64-3.8-2.79-2.76a.99.99 0 0 1-.24-1.03c.12-.36.45-.63.84-.69l3.8-.55 1.66-3.4c.18-.35.55-.58.96-.58zm80.25 0c.41 0 .78.23.96.58l1.65 3.4 3.81.55c.4.06.72.33.84.69.13.36.03.76-.24 1.03l-2.8 2.75.65 3.82a1 1 0 0 1-.43 1 1.1 1.1 0 0 1-1.12.05l-3.32-1.76-3.32 1.76a1.1 1.1 0 0 1-1.12-.06 1 1 0 0 1-.43-1l.64-3.8-2.79-2.76a.99.99 0 0 1-.24-1.03c.12-.36.45-.63.84-.69l3.8-.55 1.66-3.4c.18-.35.55-.58.96-.58z"/></defs><g><g transform="translate(-4795 -587)"><use fill="#dcaf37" xlink:href="#wxc1a"/></g></g></svg>